HIERARCHY
ROOT hip
{
  OFFSET 0.00112043 5.09927 -9.65472
  CHANNELS 6 Xposition Yposition Zposition Zrotation Xrotation Yrotation
  JOINT abdomen
  {
    OFFSET 0 -1.186 -1.5018
    CHANNELS 3 Zrotation Xrotation Yrotation
    JOINT abdomen2
    {
      OFFSET 0 9.964 0.2134
      CHANNELS 3 Zrotation Xrotation Yrotation
      JOINT chest
      {
        OFFSET 0 13.134 -3.2573
        CHANNELS 3 Zrotation Xrotation Yrotation
        JOINT neck
        {
          OFFSET 0 20.686 -1.6905
          CHANNELS 3 Zrotation Xrotation Yrotation
          JOINT head
          {
            OFFSET 0 7.238 -0.1237
            CHANNELS 3 Zrotation Xrotation Yrotation
            End Site
            {
              OFFSET 0 0 0
            }
          }
        }
        JOINT lCollar
        {
          OFFSET 1.7069 20.075 5.0056
          CHANNELS 3 Zrotation Xrotation Yrotation
          JOINT lShldr
          {
            OFFSET 13.6458 -0.047 -4.849
            CHANNELS 3 Zrotation Xrotation Yrotation
            JOINT lForeArm
            {
              OFFSET 28.3255 -0.9759 2.2888
              CHANNELS 3 Zrotation Xrotation Yrotation
              JOINT lHand
              {
                OFFSET 22.1583 -0.53 10.8316
                CHANNELS 3 Zrotation Xrotation Yrotation
                JOINT lThumb1
                {
                  OFFSET 0.786 0.112 2.5817
                  CHANNELS 3 Zrotation Xrotation Yrotation
                  JOINT lThumb2
                  {
                    OFFSET 0.3601 -0.878 4.2331
                    CHANNELS 3 Zrotation Xrotation Yrotation
                    JOINT lThumb2_End
                    {
                      OFFSET 1.8127 -1.216 2.2227
                      CHANNELS 3 Zrotation Xrotation Yrotation
                      End Site
                      {
                        OFFSET 0.0181 -0.0122 0.0222
                      }
                    }
                  }
                }
                JOINT lCarpal1
                {
                  OFFSET 0.9571 1.114 1.7695
                  CHANNELS 3 Zrotation Xrotation Yrotation
                  JOINT lIndex1
                  {
                    OFFSET 4.1246 0.487 4.1451
                    CHANNELS 3 Zrotation Xrotation Yrotation
                    JOINT lIndex2
                    {
                      OFFSET 3.4052 -1.454 2.7682
                      CHANNELS 3 Zrotation Xrotation Yrotation
                      JOINT lIndex2_End
                      {
                        OFFSET 1.4531 -1.795 1.2713
                        CHANNELS 3 Zrotation Xrotation Yrotation
                        End Site
                        {
                          OFFSET 0.0145 -0.0179 0.0127
                        }
                      }
                    }
                  }
                  JOINT lMid1
                  {
                    OFFSET 5.6954 0.21 2.1184
                    CHANNELS 3 Zrotation Xrotation Yrotation
                    JOINT lMid2
                    {
                      OFFSET 3.9766 -1.54 2.3863
                      CHANNELS 3 Zrotation Xrotation Yrotation
                      JOINT lMid2_End
                      {
                        OFFSET 1.4042 -1.926 1.125
                        CHANNELS 3 Zrotation Xrotation Yrotation
                        End Site
                        {
                          OFFSET 0.014 -0.0193 0.0113
                        }
                      }
                    }
                  }
                }
                JOINT lCarpal2
                {
                  OFFSET 2.0956 0.66 -0.3894
                  CHANNELS 3 Zrotation Xrotation Yrotation
                  JOINT lRing1
                  {
                    OFFSET 5.0395 -0.09 2.4971
                    CHANNELS 3 Zrotation Xrotation Yrotation
                    JOINT lRing2
                    {
                      OFFSET 3.7921 -1.552 1.4806
                      CHANNELS 3 Zrotation Xrotation Yrotation
                      JOINT lRing2_End
                      {
                        OFFSET 1.4655 -1.808 0.9609
                        CHANNELS 3 Zrotation Xrotation Yrotation
                        End Site
                        {
                          OFFSET 0.0147 -0.0181 0.0096
                        }
                      }
                    }
                  }
                  JOINT lPinky1
                  {
                    OFFSET 4.9141 -1.269 0.3591
                    CHANNELS 3 Zrotation Xrotation Yrotation
                    JOINT lPinky2
                    {
                      OFFSET 3.1477 -1.685 0.8462
                      CHANNELS 3 Zrotation Xrotation Yrotation
                      JOINT lPinky2_End
                      {
                        OFFSET 0.8055 -1.585 0.7955
                        CHANNELS 3 Zrotation Xrotation Yrotation
                        End Site
                        {
                          OFFSET 0.0081 -0.0158 0.008
                        }
                      }
                    }
                  }
                }
              }
            }
          }
        }
        JOINT rCollar
        {
          OFFSET -1.7069 20.075 5.0056
          CHANNELS 3 Zrotation Xrotation Yrotation
          JOINT rShldr
          {
            OFFSET -13.6458 -0.047 -4.849
            CHANNELS 3 Zrotation Xrotation Yrotation
            JOINT rForeArm
            {
              OFFSET -28.3255 -0.9759 2.2888
              CHANNELS 3 Zrotation Xrotation Yrotation
              JOINT rHand
              {
                OFFSET -22.1583 -0.53 10.8316
                CHANNELS 3 Zrotation Xrotation Yrotation
                JOINT rThumb1
                {
                  OFFSET -0.786 0.112 2.5817
                  CHANNELS 3 Zrotation Xrotation Yrotation
                  JOINT rThumb2
                  {
                    OFFSET -0.3601 -0.878 4.2331
                    CHANNELS 3 Zrotation Xrotation Yrotation
                    JOINT rThumb2_End
                    {
                      OFFSET -1.8127 -1.216 2.2227
                      CHANNELS 3 Zrotation Xrotation Yrotation
                      End Site
                      {
                        OFFSET -0.0181 -0.0122 0.0222
                      }
                    }
                  }
                }
                JOINT rCarpal1
                {
                  OFFSET -0.9571 1.114 1.7695
                  CHANNELS 3 Zrotation Xrotation Yrotation
                  JOINT rIndex1
                  {
                    OFFSET -4.1246 0.487 4.1451
                    CHANNELS 3 Zrotation Xrotation Yrotation
                    JOINT rIndex2
                    {
                      OFFSET -3.4052 -1.454 2.7682
                      CHANNELS 3 Zrotation Xrotation Yrotation
                      JOINT rIndex2_End
                      {
                        OFFSET -1.4531 -1.795 1.2713
                        CHANNELS 3 Zrotation Xrotation Yrotation
                        End Site
                        {
                          OFFSET -0.0145 -0.018 0.0127
                        }
                      }
                    }
                  }
                  JOINT rMid1
                  {
                    OFFSET -5.6954 0.21 2.1184
                    CHANNELS 3 Zrotation Xrotation Yrotation
                    JOINT rMid2
                    {
                      OFFSET -3.9766 -1.54 2.3863
                      CHANNELS 3 Zrotation Xrotation Yrotation
                      JOINT rMid2_End
                      {
                        OFFSET -1.4042 -1.926 1.125
                        CHANNELS 3 Zrotation Xrotation Yrotation
                        End Site
                        {
                          OFFSET -0.014 -0.0193 0.0113
                        }
                      }
                    }
                  }
                }
                JOINT rCarpal2
                {
                  OFFSET -2.0956 0.66 -0.3894
                  CHANNELS 3 Zrotation Xrotation Yrotation
                  JOINT rRing1
                  {
                    OFFSET -5.0395 -0.09 2.4971
                    CHANNELS 3 Zrotation Xrotation Yrotation
                    JOINT rRing2
                    {
                      OFFSET -3.7921 -1.552 1.4806
                      CHANNELS 3 Zrotation Xrotation Yrotation
                      JOINT rRing2_End
                      {
                        OFFSET -1.4655 -1.808 0.9609
                        CHANNELS 3 Zrotation Xrotation Yrotation
                        End Site
                        {
                          OFFSET -0.0147 -0.0181 0.0096
                        }
                      }
                    }
                  }
                  JOINT rPinky1
                  {
                    OFFSET -4.9141 -1.269 0.3592
                    CHANNELS 3 Zrotation Xrotation Yrotation
                    JOINT rPinky2
                    {
                      OFFSET -3.1477 -1.685 0.8462
                      CHANNELS 3 Zrotation Xrotation Yrotation
                      JOINT rPinky2_End
                      {
                        OFFSET -0.8055 -1.585 0.7955
                        CHANNELS 3 Zrotation Xrotation Yrotation
                        End Site
                        {
                          OFFSET -0.0081 -0.0158 0.008
                        }
                      }
                    }
                  }
                }
              }
            }
          }
        }
      }
    }
  }
  JOINT lThigh
  {
    OFFSET 8.367 -8.2066 0.5982
    CHANNELS 3 Zrotation Xrotation Yrotation
    JOINT lShin
    {
      OFFSET 2.1923 -43.463 -0.4932
      CHANNELS 3 Zrotation Xrotation Yrotation
      JOINT lFoot
      {
        OFFSET 0.7333 -45.8593 -2.6451
        CHANNELS 3 Zrotation Xrotation Yrotation
        End Site
        {
          OFFSET 2.6618 -4.2699 12.3931
        }
      }
    }
  }
  JOINT rThigh
  {
    OFFSET -8.367 -8.2066 0.5982
    CHANNELS 3 Zrotation Xrotation Yrotation
    JOINT rShin
    {
      OFFSET -2.1923 -43.463 -0.4931
      CHANNELS 3 Zrotation Xrotation Yrotation
      JOINT rFoot
      {
        OFFSET -0.7333 -45.8593 -2.6451
        CHANNELS 3 Zrotation Xrotation Yrotation
        End Site
        {
          OFFSET -2.6618 -4.2699 12.3931
        }
      }
    }
  }
}
MOTION
Frames:	4
Frame Time:	0.0333333
0 91.7903 2.51682 0 0 -0 0 0 -0 0 0 -0 0 0 -0 0 0 -0 0 0 -0 0 0 -0 1.66051 0.0835086 5.75766 -0.0175111 0.895433 15.7816 7.95139e-016 -1.98785e-016 -0 5.46658e-016 -3.97569e-016 -0 5.96354e-016 0 -0 3.97569e-016 1.98785e-016 9.54166e-015 1.49089e-016 -3.97569e-016 -0 6.4605e-016 0 3.18055e-015 5.96354e-016 0 3.18055e-015 8.94531e-016 -1.98785e-016 6.36111e-015 6.4605e-016 0 3.18055e-015 5.96354e-016 0 3.18055e-015 8.94531e-016 -1.98785e-016 6.36111e-015 1.49089e-016 -3.97569e-016 -0 6.4605e-016 0 3.18055e-015 5.96354e-016 0 3.18055e-015 8.94531e-016 -1.98785e-016 6.36111e-015 6.4605e-016 0 3.18055e-015 5.96354e-016 0 3.18055e-015 8.94531e-016 -1.98785e-016 6.36111e-015 0 0 -0 -1.4496 0.0636048 -5.0245 -1.74811 1.20616 -16.8394 -1.19271e-015 1.98785e-016 -3.18055e-015 -3.97569e-016 1.98785e-016 -3.18055e-015 -2.98177e-016 1.98785e-016 -3.18055e-015 -2.98177e-016 3.97569e-016 -0 4.96962e-016 0 -6.36111e-015 -9.93923e-017 3.97569e-016 -0 -8.94531e-016 5.96354e-016 -0 -3.97569e-016 3.97569e-016 -0 -9.93923e-017 3.97569e-016 -0 -8.94531e-016 5.96354e-016 -0 -3.97569e-016 3.97569e-016 -0 4.96962e-016 0 -6.36111e-015 -9.93923e-017 3.97569e-016 -0 -8.94531e-016 5.96354e-016 -0 -3.97569e-016 3.97569e-016 -0 -9.93923e-017 3.97569e-016 -0 -8.94531e-016 5.96354e-016 -0 -3.97569e-016 3.97569e-016 -0 -4.66111 -0.998717 0.12318 0.00986924 1.54847 0.176523 4.65186 -0.572283 -0.254274 4.66111 -0.998765 -0.123176 -0.00986867 1.54869 -0.176537 -4.65186 -0.572453 0.25427 
8.21519 1.21675 5.70203 -95.625 0 -0 2.14588 6.05857 -6.10047 4.97112 11.8475 -12.5277 4.97116 11.8475 -12.5277 9.71811 -2.09989 0.336505 0.0855728 15.823 -0.00821678 8.07845 -24.4667 27.3499 -68.5937 16.9432 -44.4873 -21.4153 1.18705 21.735 -7.58366e-007 -2.3041e-006 2.21893e-006 -2.38542e-015 -3.18055e-015 1.59028e-015 -2.38542e-015 0 4.77083e-015 -2.38542e-015 3.18055e-015 3.18055e-015 -2.38542e-015 -3.18055e-015 -0 -6.36111e-015 -9.54166e-015 6.36111e-015 -1.59028e-015 -6.36111e-015 6.36111e-015 -1.59028e-015 3.18055e-015 4.77083e-015 -6.36111e-015 -9.54166e-015 6.36111e-015 -1.59028e-015 -6.36111e-015 6.36111e-015 -1.59028e-015 3.18055e-015 4.77083e-015 -2.38542e-015 -3.18055e-015 -0 -6.36111e-015 -9.54166e-015 6.36111e-015 -1.59028e-015 -6.36111e-015 6.36111e-015 -1.59028e-015 3.18055e-015 4.77083e-015 -6.36111e-015 -9.54166e-015 6.36111e-015 -1.59028e-015 -6.36111e-015 6.36111e-015 -1.59028e-015 3.18055e-015 4.77083e-015 -105.776 -54.3507 -168.983 -16.2721 -12.284 -21.7373 28.034 27.7318 -20.8418 -1.01237 60.0333 -34.9513 1.21506e-006 4.72708e-007 -1.08184e-006 -2.16369e-006 -4.26601e-007 -2.43013e-006 -3.37875e-006 -8.9931e-007 -1.34829e-006 -1.10348e-032 3.97569e-016 1.59028e-015 1.21506e-006 4.72708e-007 -1.08184e-006 -2.16369e-006 -4.26601e-007 -2.43013e-006 -3.37875e-006 -8.9931e-007 -1.34829e-006 1.21506e-006 4.72708e-007 -1.08184e-006 -2.16369e-006 -4.26601e-007 -2.43013e-006 -3.37875e-006 -8.9931e-007 -1.34829e-006 -1.10348e-032 3.97569e-016 1.59028e-015 1.21506e-006 4.72708e-007 -1.08184e-006 -2.16369e-006 -4.26601e-007 -2.43013e-006 -3.37875e-006 -8.9931e-007 -1.34829e-006 1.21506e-006 4.72708e-007 -1.08184e-006 -2.16369e-006 -4.26601e-007 -2.43013e-006 -3.37875e-006 -8.9931e-007 -1.34829e-006 6.44392 0.0377344 10.0691 21.8231 81.7732 -22.5745 2.0479 13.053 2.916 -11.6235 -18.2645 -0.408527 57.0257 19.2226 -85.3469 13.6233 43.5464 11.2972 
8.31589 6.76107 6.637 -90 0 -0 2.03454 5.05729 -6.07021 4.62265 9.86601 -12.387 4.62263 9.86601 -12.387 9.6853 -1.97325 0.335172 0.390227 14.4835 -0.0362077 4.40956 -21.021 25.0992 -64.641 16.3075 -40.5457 -19.6266 0.365321 21.7005 -1.43358e-006 -3.29761e-006 -2.04732e-007 -1.35095e-006 1.28623e-007 1.33172e-006 -1.43358e-006 -3.29761e-006 -2.04732e-007 -2.15383e-006 8.55776e-008 1.05769e-006 -3.97569e-015 1.27222e-014 -1.59028e-015 -1.35095e-006 1.28623e-007 1.33172e-006 -1.43358e-006 -3.29761e-006 -2.04732e-007 -2.15383e-006 8.55776e-008 1.05769e-006 -1.35095e-006 1.28623e-007 1.33172e-006 -1.43358e-006 -3.29761e-006 -2.04732e-007 -2.15383e-006 8.55776e-008 1.05769e-006 -3.97569e-015 1.27222e-014 -1.59028e-015 -1.35095e-006 1.28623e-007 1.33172e-006 -1.43358e-006 -3.29761e-006 -2.04732e-007 -2.15383e-006 8.55776e-008 1.05769e-006 -1.35095e-006 1.28623e-007 1.33172e-006 -1.43358e-006 -3.29761e-006 -2.04732e-007 -2.15383e-006 8.55776e-008 1.05769e-006 -106.304 -63.7915 -164.233 -15.5006 -11.4564 -20.7001 28.2063 25.736 -20.9741 -9.05157 55.8287 -27.4163 -3.18055e-015 7.95139e-016 -7.95139e-016 -6.36111e-015 1.59028e-015 4.96962e-015 -6.36111e-015 0 7.55382e-015 3.18055e-015 7.95139e-016 -3.77691e-015 1.07589e-031 -2.38542e-015 2.5842e-015 -9.54166e-015 -3.97569e-015 8.74653e-015 -9.54166e-015 -3.18055e-015 7.95139e-015 1.07589e-031 -2.38542e-015 2.5842e-015 -9.54166e-015 -3.97569e-015 8.74653e-015 -9.54166e-015 -3.18055e-015 7.95139e-015 3.18055e-015 7.95139e-016 -3.77691e-015 1.07589e-031 -2.38542e-015 2.5842e-015 -9.54166e-015 -3.97569e-015 8.74653e-015 -9.54166e-015 -3.18055e-015 7.95139e-015 1.07589e-031 -2.38542e-015 2.5842e-015 -9.54166e-015 -3.97569e-015 8.74653e-015 -9.54166e-015 -3.18055e-015 7.95139e-015 5.84746 1.66229 9.3262 9.57758 75.4768 -10.534 2.19535 12.1688 2.71505 -10.5983 -16.8773 -0.133011 53.1633 22.7687 -82.8191 13.2489 40.7203 10.8979 
8.3053 6.76081 7.6337 -90 0 -0 2.1276 4.40799 -6.38857 4.75534 8.54735 -12.992 4.75534 8.54735 -12.992 10.1965 -1.97012 0.352762 0.682362 14.0969 -0.0609578 2.08241 -18.8167 24.8458 -63.9919 15.7994 -39.7388 -18.8327 0.19706 21.6825 7.78641e-007 1.0822e-006 -6.30185e-007 7.44983e-007 -4.42751e-006 -3.5441e-007 -2.02398e-007 4.25192e-006 -1.25264e-006 7.44983e-007 -4.42751e-006 -3.54409e-007 -4.77083e-015 -3.18055e-015 -1.59028e-015 7.44983e-007 -4.42751e-006 -3.5441e-007 -2.02398e-007 4.25192e-006 -1.25264e-006 7.44983e-007 -4.42751e-006 -3.54409e-007 7.44983e-007 -4.42751e-006 -3.5441e-007 -2.02398e-007 4.25192e-006 -1.25264e-006 7.44983e-007 -4.42751e-006 -3.54409e-007 -4.77083e-015 -3.18055e-015 -1.59028e-015 7.44983e-007 -4.42751e-006 -3.5441e-007 -2.02398e-007 4.25192e-006 -1.25264e-006 7.44983e-007 -4.42751e-006 -3.54409e-007 7.44983e-007 -4.42751e-006 -3.5441e-007 -2.02398e-007 4.25192e-006 -1.25264e-006 7.44983e-007 -4.42751e-006 -3.54409e-007 -104.98 -65.8245 -161.046 -15.7889 -11.307 -20.6869 28.845 26.7448 -20.9401 -13.0609 54.7088 -24.6545 -6.36111e-015 -3.18055e-015 1.19271e-014 -9.54166e-015 -3.97569e-015 7.95139e-016 -6.36111e-015 -1.59028e-015 1.39149e-015 -6.36111e-015 -3.18055e-015 5.56597e-015 -6.36111e-015 -7.95139e-016 1.11319e-014 -3.18055e-015 1.59028e-015 -6.36111e-015 -0 -2.38542e-015 -0 -6.36111e-015 -7.95139e-016 1.11319e-014 -3.18055e-015 1.59028e-015 -6.36111e-015 -0 -2.38542e-015 -0 -6.36111e-015 -3.18055e-015 5.56597e-015 -6.36111e-015 -7.95139e-016 1.11319e-014 -3.18055e-015 1.59028e-015 -6.36111e-015 -0 -2.38542e-015 -0 -6.36111e-015 -7.95139e-016 1.11319e-014 -3.18055e-015 1.59028e-015 -6.36111e-015 -0 -2.38542e-015 -0 5.81147 3.05922 9.17421 8.00889 73.9545 -9.07084 2.20085 12.021 2.71485 -10.4423 -16.2194 0.262877 53.2025 22.7788 -82.8295 13.6736 40.5275 11.2311 
